<svg width="24" height="24" viewBox="0 0 24 24"  xmlns="http://www.w3.org/2000/svg">
<path d="M8.00021 12C7.99976 11.7663 8.08113 11.5399 8.23021 11.36L13.2302 5.36C13.4 5.15578 13.6439 5.02736 13.9083 5.00298C14.1727 4.9786 14.436 5.06026 14.6402 5.23C14.8444 5.39974 14.9729 5.64365 14.9972 5.90808C15.0216 6.1725 14.94 6.43578 14.7702 6.64L10.2902 12L14.6102 17.36C14.6933 17.4623 14.7553 17.58 14.7927 17.7063C14.8302 17.8327 14.8423 17.9652 14.8283 18.0962C14.8144 18.2272 14.7747 18.3542 14.7115 18.4698C14.6483 18.5855 14.5629 18.6875 14.4602 18.77C14.3574 18.8616 14.2368 18.9309 14.1059 18.9737C13.975 19.0165 13.8367 19.0318 13.6997 19.0187C13.5626 19.0055 13.4297 18.9642 13.3094 18.8974C13.189 18.8305 13.0838 18.7395 13.0002 18.63L8.17021 12.63C8.0447 12.4449 7.98484 12.2231 8.00021 12Z" />
</svg>
