<svg width="24" height="24" viewBox="0 0 24 24"  xmlns="http://www.w3.org/2000/svg">
<path d="M15.9998 12C16.0002 12.2337 15.9189 12.4601 15.7698 12.64L10.7698 18.64C10.6 18.8442 10.3561 18.9726 10.0917 18.997C9.82728 19.0214 9.564 18.9397 9.35979 18.77C9.15557 18.6003 9.02715 18.3563 9.00277 18.0919C8.97839 17.8275 9.06005 17.5642 9.22979 17.36L13.7098 12L9.38979 6.64C9.30672 6.53771 9.24469 6.42001 9.20726 6.29368C9.16983 6.16734 9.15773 6.03485 9.17167 5.90382C9.18561 5.77279 9.22531 5.64581 9.28848 5.53017C9.35166 5.41453 9.43706 5.31252 9.53979 5.23C9.64261 5.13842 9.76324 5.06906 9.89411 5.02627C10.025 4.98347 10.1633 4.96817 10.3003 4.98131C10.4374 4.99446 10.5703 5.03576 10.6906 5.10265C10.811 5.16953 10.9162 5.26055 10.9998 5.37L15.8298 11.37C15.9553 11.5551 16.0152 11.7769 15.9998 12Z"/>
</svg>
