<svg width="24" height="24" viewBox="0 0 24 24" fill="none" xmlns="http://www.w3.org/2000/svg">
<path d="M12.0002 8C12.2339 7.99954 12.4603 8.08092 12.6402 8.23L18.6402 13.23C18.8444 13.3997 18.9729 13.6436 18.9972 13.9081C19.0216 14.1725 18.94 14.4358 18.7702 14.64C18.6005 14.8442 18.3566 14.9726 18.0921 14.997C17.8277 15.0214 17.5644 14.9397 17.3602 14.77L12.0002 10.29L6.64021 14.61C6.53792 14.6931 6.42023 14.7551 6.29389 14.7925C6.16755 14.83 6.03506 14.8421 5.90403 14.8281C5.773 14.8142 5.64602 14.7745 5.53038 14.7113C5.41475 14.6481 5.31273 14.5627 5.23021 14.46C5.13863 14.3572 5.06927 14.2366 5.02648 14.1057C4.98369 13.9748 4.96839 13.8365 4.98153 13.6994C4.99467 13.5624 5.03598 13.4295 5.10286 13.3091C5.16974 13.1888 5.26076 13.0835 5.37021 13L11.3702 8.17C11.5553 8.04448 11.7771 7.98463 12.0002 8Z" fill="black"/>
</svg>
