<svg width="24" height="24" viewBox="0 0 24 24" xmlns="http://www.w3.org/2000/svg">
<path fill-rule="evenodd" clip-rule="evenodd" d="M12 22C17.5228 22 22 17.5228 22 12C22 6.47715 17.5228 2 12 2C6.47715 2 2 6.47715 2 12C2 17.5228 6.47715 22 12 22ZM12 20C16.4183 20 20 16.4183 20 12C20 7.58172 16.4183 4 12 4C7.58172 4 4 7.58172 4 12C4 16.4183 7.58172 20 12 20Z" />
<path d="M3.85283 17.8C5.66592 15.2577 8.63945 13.6 12 13.6C15.3605 13.6 18.3341 15.2577 20.1472 17.8C18.3341 20.3423 15.3605 22 12 22C8.63945 22 5.66592 20.3423 3.85283 17.8Z" />
<path d="M15 9.8C15 11.4569 13.6569 12.8 12 12.8C10.3431 12.8 9 11.4569 9 9.8C9 8.14315 10.3431 6.8 12 6.8C13.6569 6.8 15 8.14315 15 9.8Z"/>
</svg>
