<svg width="24" height="24" viewBox="0 0 24 24" xmlns="http://www.w3.org/2000/svg">
<path d="M3.00287 21.0022H21.5329C22.3029 21.0022 22.7829 20.1722 22.4029 19.5022L13.1329 3.50225C13.0458 3.34969 12.9199 3.22287 12.768 3.13467C12.6161 3.04646 12.4435 3 12.2679 3C12.0922 3 11.9197 3.04646 11.7678 3.13467C11.6158 3.22287 11.49 3.34969 11.4029 3.50225L2.13287 19.5022C1.75287 20.1722 2.23287 21.0022 3.00287 21.0022ZM13.2729 18.0022H11.2729V16.0022H13.2729V18.0022ZM12.2729 14.0022C11.7229 14.0022 11.2729 13.5522 11.2729 13.0022V11.0022C11.2729 10.4522 11.7229 10.0022 12.2729 10.0022C12.8229 10.0022 13.2729 10.4522 13.2729 11.0022V13.0022C13.2729 13.5522 12.8229 14.0022 12.2729 14.0022Z"/>
</svg>
