<svg width="24" height="24" viewBox="0 0 24 24" xmlns="http://www.w3.org/2000/svg">
<path d="M11.4735 3.18837C11.569 3.11037 11.6806 3.05451 11.8002 3.02482C11.9198 2.99513 12.0446 2.99234 12.1654 3.01665L20.5012 4.6838C20.6901 4.72156 20.86 4.82357 20.9822 4.9725C21.1044 5.12143 21.1712 5.30807 21.1714 5.5007V20.5001C21.1712 20.6927 21.1044 20.8793 20.9822 21.0283C20.86 21.1772 20.6901 21.2792 20.5012 21.317L12.1654 22.9841C12.0445 23.0083 11.9198 23.0053 11.8002 22.9755C11.6806 22.9456 11.5691 22.8896 11.4737 22.8115C11.3784 22.7333 11.3015 22.635 11.2487 22.5236C11.1959 22.4122 11.1685 22.2905 11.1685 22.1672V3.83355L11.4735 3.18837ZM16.1699 12.9995C16.1699 12.7785 16.0821 12.5664 15.9258 12.4101C15.7694 12.2538 15.5574 12.166 15.3363 12.166C15.1153 12.166 14.9032 12.2538 14.7469 12.4101C14.5906 12.5664 14.5028 12.7785 14.5028 12.9995C14.5028 13.2206 14.5906 13.4326 14.7469 13.589C14.9032 13.7453 15.1153 13.8331 15.3363 13.8331C15.5574 13.8331 15.7694 13.7453 15.9258 13.589C16.0821 13.4326 16.1699 13.2206 16.1699 12.9995Z"/>
<path d="M9.50145 4.66711H5.33358C5.1125 4.66711 4.90047 4.75494 4.74415 4.91126C4.58782 5.06759 4.5 5.27961 4.5 5.50069V20.5C4.5 20.7211 4.58782 20.9331 4.74415 21.0895C4.90047 21.2458 5.1125 21.3336 5.33358 21.3336H9.50145V4.66711Z"/>
<path d="M11.4735 3.18839C11.3781 3.26663 11.3012 3.3651 11.2485 3.47668C11.1957 3.58825 11.1684 3.71015 11.1685 3.83357L11.4735 3.18839Z"/>
</svg>
