<svg width="24" height="24" viewBox="0 0 24 24" xmlns="http://www.w3.org/2000/svg">
<path d="M12.8 12.6C13.4365 12.6 14.047 12.8529 14.4971 13.3029C14.9471 13.753 15.2 14.3635 15.2 15V16.8C15.2 19.2648 12.6944 21 8.6 21C4.5056 21 2 19.2648 2 16.8V15C2 14.3635 2.25286 13.753 2.70294 13.3029C3.15303 12.8529 3.76348 12.6 4.4 12.6H12.8ZM18.8 12.6C19.4365 12.6 20.047 12.8529 20.4971 13.3029C20.9471 13.753 21.2 14.3635 21.2 15V15.6C21.2 18.1068 19.3184 19.8 15.8 19.8C15.6308 19.8 15.464 19.7964 15.3032 19.788C15.95 19.0356 16.3328 18.1248 16.3916 17.0868L16.4 16.8V15C16.4 14.1696 16.1192 13.404 15.6464 12.7956L15.482 12.6H18.8ZM8.6 3C9.15155 3 9.6977 3.10864 10.2073 3.31971C10.7168 3.53078 11.1798 3.84015 11.5698 4.23015C11.9599 4.62016 12.2692 5.08316 12.4803 5.59273C12.6914 6.1023 12.8 6.64845 12.8 7.2C12.8 7.75155 12.6914 8.2977 12.4803 8.80727C12.2692 9.31684 11.9599 9.77984 11.5698 10.1698C11.1798 10.5599 10.7168 10.8692 10.2073 11.0803C9.6977 11.2914 9.15155 11.4 8.6 11.4C7.48609 11.4 6.4178 10.9575 5.63015 10.1698C4.8425 9.3822 4.4 8.31391 4.4 7.2C4.4 6.08609 4.8425 5.0178 5.63015 4.23015C6.4178 3.4425 7.48609 3 8.6 3ZM17 5.4C17.7956 5.4 18.5587 5.71607 19.1213 6.27868C19.6839 6.84129 20 7.60435 20 8.4C20 9.19565 19.6839 9.95871 19.1213 10.5213C18.5587 11.0839 17.7956 11.4 17 11.4C16.2043 11.4 15.4413 11.0839 14.8787 10.5213C14.3161 9.95871 14 9.19565 14 8.4C14 7.60435 14.3161 6.84129 14.8787 6.27868C15.4413 5.71607 16.2043 5.4 17 5.4Z"/>
</svg>
