<svg width="24" height="24" viewBox="0 0 24 24" fill="none" xmlns="http://www.w3.org/2000/svg">
<path d="M3 16.5714C3 16.2115 3.14298 15.8663 3.3975 15.6118C3.65201 15.3573 3.99721 15.2143 4.35714 15.2143H7.07143C7.43137 15.2143 7.77656 15.3573 8.03107 15.6118C8.28559 15.8663 8.42857 16.2115 8.42857 16.5714V20.6429C8.42857 21.0028 8.28559 21.348 8.03107 21.6025C7.77656 21.857 7.43137 22 7.07143 22H4.35714C3.99721 22 3.65201 21.857 3.3975 21.6025C3.14298 21.348 3 21.0028 3 20.6429V16.5714ZM9.78571 11.1429C9.78571 10.7829 9.9287 10.4377 10.1832 10.1832C10.4377 9.9287 10.7829 9.78571 11.1429 9.78571H13.8571C14.2171 9.78571 14.5623 9.9287 14.8168 10.1832C15.0713 10.4377 15.2143 10.7829 15.2143 11.1429V20.6429C15.2143 21.0028 15.0713 21.348 14.8168 21.6025C14.5623 21.857 14.2171 22 13.8571 22H11.1429C10.7829 22 10.4377 21.857 10.1832 21.6025C9.9287 21.348 9.78571 21.0028 9.78571 20.6429V11.1429ZM16.5714 4.35714C16.5714 3.99721 16.7144 3.65201 16.9689 3.3975C17.2234 3.14298 17.5686 3 17.9286 3H20.6429C21.0028 3 21.348 3.14298 21.6025 3.3975C21.857 3.65201 22 3.99721 22 4.35714V20.6429C22 21.0028 21.857 21.348 21.6025 21.6025C21.348 21.857 21.0028 22 20.6429 22H17.9286C17.5686 22 17.2234 21.857 16.9689 21.6025C16.7144 21.348 16.5714 21.0028 16.5714 20.6429V4.35714Z" fill="black"/>
</svg>
